<svg xmlns="http://www.w3.org/2000/svg" xmlns:xlink="http://www.w3.org/1999/xlink" width="500" zoomAndPan="magnify" viewBox="0 0 375 374.999991" height="500" preserveAspectRatio="xMidYMid meet" version="1.0"><defs><clipPath id="c08c7b273e"><path d="M 135.46875 101.25 L 375 101.25 L 375 375 L 135.46875 375 Z M 135.46875 101.25 " clip-rule="nonzero"/></clipPath><clipPath id="ac93778782"><path d="M 375 187.5 C 375 291.054688 291.054688 375 187.5 375 C 83.945312 375 0 291.054688 0 187.5 C 0 83.945312 83.945312 0 187.5 0 C 291.054688 0 375 83.945312 375 187.5 Z M 375 187.5 " clip-rule="nonzero"/></clipPath></defs><path fill="#7ac943" d="M 375 187.5 C 375 291.054688 291.054688 375 187.5 375 C 83.945312 375 0 291.054688 0 187.5 C 0 83.945312 83.945312 0 187.5 0 C 291.054688 0 375 83.945312 375 187.5 " fill-opacity="1" fill-rule="nonzero"/><g clip-path="url(#c08c7b273e)"><g clip-path="url(#ac93778782)"><path fill="#69ad3a" d="M 458.441406 252.882812 L 307.078125 101.515625 L 135.574219 273.953125 L 272.886719 411.265625 L 458.441406 252.882812 " fill-opacity="1" fill-rule="nonzero"/></g></g><path fill="#ffffff" d="M 307.078125 101.515625 C 302.070312 96.507812 295.410156 93.75 288.328125 93.75 C 281.246094 93.75 274.585938 96.507812 269.578125 101.515625 L 153.878906 217.214844 L 105.421875 168.757812 C 100.414062 163.75 93.753906 160.992188 86.671875 160.992188 C 79.589844 160.992188 72.929688 163.75 67.921875 168.757812 C 57.585938 179.097656 57.585938 195.917969 67.921875 206.257812 L 134.882812 273.214844 C 134.957031 273.292969 135.03125 273.375 135.125 273.46875 C 136.398438 274.738281 137.800781 275.886719 139.289062 276.867188 C 143.625 279.734375 148.679688 281.25 153.898438 281.25 C 160.984375 281.25 167.640625 278.492188 172.644531 273.488281 C 172.886719 273.246094 301.597656 144.492188 307.078125 139.011719 C 312.085938 134.003906 314.84375 127.347656 314.84375 120.265625 C 314.84375 113.183594 312.085938 106.523438 307.078125 101.515625 " fill-opacity="1" fill-rule="nonzero"/></svg>