<svg xmlns="http://www.w3.org/2000/svg" xmlns:xlink="http://www.w3.org/1999/xlink" width="500" zoomAndPan="magnify" viewBox="0 0 375 374.999991" height="500" preserveAspectRatio="xMidYMid meet" version="1.0"><defs><g/><clipPath id="03d1cdb0ea"><path d="M 8.863281 180 L 365.863281 180 L 365.863281 375 L 8.863281 375 Z M 8.863281 180 " clip-rule="nonzero"/></clipPath></defs><g clip-path="url(#03d1cdb0ea)"><path fill="#231f20" d="M 308.070312 204.097656 L 277.742188 182.351562 L 267.375 196.875 L 297.707031 218.699219 C 329.1875 241.214844 347.921875 277.792969 347.921875 316.523438 L 347.921875 348.335938 C 347.921875 353.253906 343.929688 357.25 339.015625 357.25 L 35.710938 357.25 C 30.796875 357.25 26.804688 353.253906 26.804688 348.335938 L 26.804688 314.753906 C 26.804688 277.101562 44.773438 241.136719 74.871094 218.46875 L 105.816406 195.183594 L 95.066406 180.890625 L 64.121094 204.175781 C 29.566406 230.070312 8.914062 271.414062 8.914062 314.675781 L 8.914062 348.257812 C 8.914062 363.011719 20.890625 375 35.710938 375 L 339.015625 375 C 353.757812 375 365.816406 363.011719 365.816406 348.179688 L 365.816406 316.367188 C 365.816406 271.953125 344.238281 229.996094 308.070312 204.097656 Z M 308.070312 204.097656 " fill-opacity="1" fill-rule="nonzero"/></g><path fill="#231f20" d="M 187.363281 196.414062 C 241.496094 196.414062 285.496094 152.382812 285.496094 98.207031 C 285.496094 44.03125 241.496094 0 187.363281 0 C 133.230469 0 89.230469 44.03125 89.230469 98.207031 C 89.230469 152.382812 133.230469 196.414062 187.363281 196.414062 Z M 187.363281 17.828125 C 231.59375 17.828125 267.683594 53.945312 267.683594 98.207031 C 267.683594 142.46875 231.59375 178.585938 187.363281 178.585938 C 143.132812 178.585938 107.046875 142.546875 107.046875 98.207031 C 107.046875 53.867188 143.058594 17.828125 187.363281 17.828125 Z M 187.363281 17.828125 " fill-opacity="1" fill-rule="nonzero"/><g fill="#000000" fill-opacity="1"><g transform="translate(40.269213, 325.191801)"><g><path d="M 8.34375 0 C 8.175781 0 7.9375 0.078125 7.625 0.234375 C 7.488281 0.304688 7.335938 0.367188 7.171875 0.421875 C 7.003906 0.484375 6.84375 0.515625 6.6875 0.515625 C 6.320312 0.515625 5.90625 0.410156 5.4375 0.203125 C 4.976562 -0.00390625 4.578125 -0.3125 4.234375 -0.71875 C 3.898438 -1.132812 3.734375 -1.628906 3.734375 -2.203125 C 3.734375 -2.335938 3.765625 -3.144531 3.828125 -4.625 C 3.890625 -6.101562 3.96875 -11.492188 4.0625 -20.796875 C 4.0625 -23.085938 4.226562 -25.191406 4.5625 -27.109375 C 4.90625 -29.035156 5.492188 -30.144531 6.328125 -30.4375 C 7.566406 -30.832031 8.898438 -31.132812 10.328125 -31.34375 C 11.753906 -31.550781 13.066406 -31.65625 14.265625 -31.65625 C 15.003906 -31.65625 15.785156 -31.453125 16.609375 -31.046875 C 17.441406 -30.640625 18.144531 -30.0625 18.71875 -29.3125 C 19.289062 -28.5625 19.578125 -27.691406 19.578125 -26.703125 C 19.578125 -24.835938 19.019531 -23.097656 17.90625 -21.484375 C 19.882812 -20.722656 21.4375 -19.578125 22.5625 -18.046875 C 23.695312 -16.523438 24.265625 -14.625 24.265625 -12.34375 C 24.265625 -9.570312 23.582031 -7.253906 22.21875 -5.390625 C 20.851562 -3.523438 19.035156 -2.140625 16.765625 -1.234375 C 14.503906 -0.328125 12.019531 0.125 9.3125 0.125 C 9.21875 0.125 9.070312 0.101562 8.875 0.0625 C 8.675781 0.0195312 8.5 0 8.34375 0 Z M 16.625 -25.90625 C 16.625 -26.175781 16.242188 -26.390625 15.484375 -26.546875 C 14.734375 -26.703125 13.820312 -26.78125 12.75 -26.78125 C 12.238281 -26.78125 11.550781 -26.734375 10.6875 -26.640625 C 9.832031 -26.546875 9.0625 -26.382812 8.375 -26.15625 C 7.695312 -25.9375 7.351562 -25.644531 7.34375 -25.28125 L 7.1875 -21.203125 C 7.582031 -21.203125 8.132812 -21.285156 8.84375 -21.453125 C 9.5625 -21.628906 11.085938 -22.09375 13.421875 -22.84375 C 15.554688 -24.15625 16.625 -25.175781 16.625 -25.90625 Z M 7.125 -14.359375 L 7.078125 -13.09375 L 7.078125 -11.90625 C 7.078125 -9.03125 7.164062 -6.75 7.34375 -5.0625 L 9.015625 -5.1875 C 11.453125 -5.351562 13.5 -5.609375 15.15625 -5.953125 C 16.820312 -6.304688 18.269531 -7.007812 19.5 -8.0625 C 20.738281 -9.113281 21.359375 -10.671875 21.359375 -12.734375 C 21.359375 -13.710938 20.957031 -14.566406 20.15625 -15.296875 C 19.351562 -16.035156 18.347656 -16.597656 17.140625 -16.984375 C 15.941406 -17.378906 14.765625 -17.578125 13.609375 -17.578125 C 13.265625 -17.578125 12.90625 -17.515625 12.53125 -17.390625 C 12.164062 -17.273438 11.671875 -17.078125 11.046875 -16.796875 C 10.316406 -16.484375 9.65625 -16.226562 9.0625 -16.03125 C 8.476562 -15.832031 7.851562 -15.691406 7.1875 -15.609375 Z M 7.125 -14.359375 "/></g></g></g><g fill="#000000" fill-opacity="1"><g transform="translate(66.99935, 325.191801)"><g><path d="M 20.734375 -5.9375 C 21.378906 -5.9375 21.859375 -5.738281 22.171875 -5.34375 C 22.492188 -4.945312 22.65625 -4.320312 22.65625 -3.46875 C 22.65625 -1.84375 21.484375 -0.769531 19.140625 -0.25 C 16.796875 0.257812 14.484375 0.515625 12.203125 0.515625 C 10.492188 0.515625 8.84375 0.0195312 7.25 -0.96875 C 5.664062 -1.96875 4.378906 -3.320312 3.390625 -5.03125 C 2.410156 -6.738281 1.921875 -8.613281 1.921875 -10.65625 C 1.921875 -13.570312 2.394531 -16.15625 3.34375 -18.40625 C 4.289062 -20.65625 5.675781 -22.40625 7.5 -23.65625 C 9.320312 -24.90625 11.488281 -25.53125 14 -25.53125 C 15.332031 -25.53125 16.648438 -25.203125 17.953125 -24.546875 C 19.253906 -23.890625 20.328125 -22.929688 21.171875 -21.671875 C 22.023438 -20.410156 22.453125 -18.925781 22.453125 -17.21875 C 22.453125 -16.332031 22.320312 -15.59375 22.0625 -15 C 21.800781 -14.40625 21.445312 -14.03125 21 -13.875 L 5.3125 -8.265625 C 5.851562 -6.554688 6.941406 -5.441406 8.578125 -4.921875 C 10.222656 -4.398438 12.046875 -4.140625 14.046875 -4.140625 C 14.703125 -4.140625 15.359375 -4.234375 16.015625 -4.421875 C 16.671875 -4.617188 17.453125 -4.890625 18.359375 -5.234375 C 18.921875 -5.460938 19.390625 -5.632812 19.765625 -5.75 C 20.140625 -5.875 20.460938 -5.9375 20.734375 -5.9375 Z M 5.0625 -12.203125 C 6.351562 -12.566406 7.828125 -13.078125 9.484375 -13.734375 C 11.148438 -14.390625 13.273438 -15.253906 15.859375 -16.328125 C 17.609375 -17.054688 18.800781 -17.539062 19.4375 -17.78125 C 18.976562 -18.78125 18.191406 -19.515625 17.078125 -19.984375 C 15.972656 -20.453125 14.695312 -20.6875 13.25 -20.6875 C 12.4375 -20.6875 11.429688 -20.378906 10.234375 -19.765625 C 9.046875 -19.148438 7.945312 -18.203125 6.9375 -16.921875 C 5.9375 -15.648438 5.3125 -14.078125 5.0625 -12.203125 Z M 5.0625 -12.203125 "/></g></g></g><g fill="#000000" fill-opacity="1"><g transform="translate(91.836851, 325.191801)"><g><path d="M 11.328125 -34.765625 C 11.328125 -32.617188 10.523438 -31.546875 8.921875 -31.546875 C 8.210938 -31.546875 7.535156 -31.757812 6.890625 -32.1875 C 6.253906 -32.625 5.9375 -33.363281 5.9375 -34.40625 C 5.9375 -34.925781 6.082031 -35.453125 6.375 -35.984375 C 6.664062 -36.515625 7.023438 -36.953125 7.453125 -37.296875 C 7.890625 -37.648438 8.316406 -37.828125 8.734375 -37.828125 C 9.429688 -37.828125 10.035156 -37.59375 10.546875 -37.125 C 11.066406 -36.65625 11.328125 -35.867188 11.328125 -34.765625 Z M 10.390625 -10.109375 C 10.429688 -8.796875 10.453125 -7.757812 10.453125 -7 L 10.453125 -6.0625 C 10.453125 -1.550781 10.265625 1.945312 9.890625 4.4375 C 9.515625 6.925781 8.550781 8.945312 7 10.5 C 5.445312 12.050781 2.992188 12.828125 -0.359375 12.828125 C -1.296875 12.828125 -2.128906 12.664062 -2.859375 12.34375 C -3.597656 12.03125 -3.96875 11.300781 -3.96875 10.15625 C -3.96875 9.257812 -3.789062 8.648438 -3.4375 8.328125 C -3.082031 8.015625 -2.550781 7.859375 -1.84375 7.859375 L -1.0625 7.859375 C 1.34375 7.859375 3.128906 7.234375 4.296875 5.984375 C 5.460938 4.742188 6.195312 3.195312 6.5 1.34375 C 6.8125 -0.5 6.976562 -2.863281 7 -5.75 L 7.078125 -20.640625 C 7.109375 -23.609375 7.765625 -25.09375 9.046875 -25.09375 C 9.628906 -25.09375 10.078125 -24.832031 10.390625 -24.3125 C 10.703125 -23.800781 10.894531 -23.179688 10.96875 -22.453125 C 10.96875 -21.296875 10.875 -19.710938 10.6875 -17.703125 C 10.476562 -15.390625 10.375 -13.644531 10.375 -12.46875 Z M 10.390625 -10.109375 "/></g></g></g><g fill="#000000" fill-opacity="1"><g transform="translate(106.614905, 325.191801)"><g><path d="M 20.734375 -5.9375 C 21.378906 -5.9375 21.859375 -5.738281 22.171875 -5.34375 C 22.492188 -4.945312 22.65625 -4.320312 22.65625 -3.46875 C 22.65625 -1.84375 21.484375 -0.769531 19.140625 -0.25 C 16.796875 0.257812 14.484375 0.515625 12.203125 0.515625 C 10.492188 0.515625 8.84375 0.0195312 7.25 -0.96875 C 5.664062 -1.96875 4.378906 -3.320312 3.390625 -5.03125 C 2.410156 -6.738281 1.921875 -8.613281 1.921875 -10.65625 C 1.921875 -13.570312 2.394531 -16.15625 3.34375 -18.40625 C 4.289062 -20.65625 5.675781 -22.40625 7.5 -23.65625 C 9.320312 -24.90625 11.488281 -25.53125 14 -25.53125 C 15.332031 -25.53125 16.648438 -25.203125 17.953125 -24.546875 C 19.253906 -23.890625 20.328125 -22.929688 21.171875 -21.671875 C 22.023438 -20.410156 22.453125 -18.925781 22.453125 -17.21875 C 22.453125 -16.332031 22.320312 -15.59375 22.0625 -15 C 21.800781 -14.40625 21.445312 -14.03125 21 -13.875 L 5.3125 -8.265625 C 5.851562 -6.554688 6.941406 -5.441406 8.578125 -4.921875 C 10.222656 -4.398438 12.046875 -4.140625 14.046875 -4.140625 C 14.703125 -4.140625 15.359375 -4.234375 16.015625 -4.421875 C 16.671875 -4.617188 17.453125 -4.890625 18.359375 -5.234375 C 18.921875 -5.460938 19.390625 -5.632812 19.765625 -5.75 C 20.140625 -5.875 20.460938 -5.9375 20.734375 -5.9375 Z M 5.0625 -12.203125 C 6.351562 -12.566406 7.828125 -13.078125 9.484375 -13.734375 C 11.148438 -14.390625 13.273438 -15.253906 15.859375 -16.328125 C 17.609375 -17.054688 18.800781 -17.539062 19.4375 -17.78125 C 18.976562 -18.78125 18.191406 -19.515625 17.078125 -19.984375 C 15.972656 -20.453125 14.695312 -20.6875 13.25 -20.6875 C 12.4375 -20.6875 11.429688 -20.378906 10.234375 -19.765625 C 9.046875 -19.148438 7.945312 -18.203125 6.9375 -16.921875 C 5.9375 -15.648438 5.3125 -14.078125 5.0625 -12.203125 Z M 5.0625 -12.203125 "/></g></g></g><g fill="#000000" fill-opacity="1"><g transform="translate(131.452406, 325.191801)"><g><path d="M 11.21875 -5.90625 C 11.6875 -5.90625 12.046875 -5.660156 12.296875 -5.171875 C 12.546875 -4.691406 12.671875 -4.125 12.671875 -3.46875 C 12.671875 -2.800781 12.46875 -2.1875 12.0625 -1.625 C 11.65625 -1.070312 11.160156 -0.640625 10.578125 -0.328125 C 9.992188 -0.0234375 9.46875 0.125 9 0.125 C 7.300781 0.125 6.0625 -0.414062 5.28125 -1.5 C 4.507812 -2.59375 4.128906 -4.191406 4.140625 -6.296875 L 4.484375 -34.734375 C 4.484375 -35.878906 4.640625 -36.800781 4.953125 -37.5 C 5.265625 -38.195312 5.75 -38.546875 6.40625 -38.546875 C 6.832031 -38.546875 7.1875 -38.289062 7.46875 -37.78125 C 7.757812 -37.269531 7.90625 -36.722656 7.90625 -36.140625 L 7.5625 -11.21875 L 7.5625 -10.34375 C 7.5625 -8.71875 7.675781 -7.367188 7.90625 -6.296875 C 8.144531 -5.222656 8.523438 -4.6875 9.046875 -4.6875 C 9.273438 -4.6875 9.460938 -4.738281 9.609375 -4.84375 C 9.765625 -4.945312 9.945312 -5.101562 10.15625 -5.3125 C 10.363281 -5.519531 10.539062 -5.671875 10.6875 -5.765625 C 10.84375 -5.859375 11.019531 -5.90625 11.21875 -5.90625 Z M 11.21875 -5.90625 "/></g></g></g><g fill="#000000" fill-opacity="1"><g transform="translate(144.882287, 325.191801)"><g><path d="M 20.734375 -5.9375 C 21.378906 -5.9375 21.859375 -5.738281 22.171875 -5.34375 C 22.492188 -4.945312 22.65625 -4.320312 22.65625 -3.46875 C 22.65625 -1.84375 21.484375 -0.769531 19.140625 -0.25 C 16.796875 0.257812 14.484375 0.515625 12.203125 0.515625 C 10.492188 0.515625 8.84375 0.0195312 7.25 -0.96875 C 5.664062 -1.96875 4.378906 -3.320312 3.390625 -5.03125 C 2.410156 -6.738281 1.921875 -8.613281 1.921875 -10.65625 C 1.921875 -13.570312 2.394531 -16.15625 3.34375 -18.40625 C 4.289062 -20.65625 5.675781 -22.40625 7.5 -23.65625 C 9.320312 -24.90625 11.488281 -25.53125 14 -25.53125 C 15.332031 -25.53125 16.648438 -25.203125 17.953125 -24.546875 C 19.253906 -23.890625 20.328125 -22.929688 21.171875 -21.671875 C 22.023438 -20.410156 22.453125 -18.925781 22.453125 -17.21875 C 22.453125 -16.332031 22.320312 -15.59375 22.0625 -15 C 21.800781 -14.40625 21.445312 -14.03125 21 -13.875 L 5.3125 -8.265625 C 5.851562 -6.554688 6.941406 -5.441406 8.578125 -4.921875 C 10.222656 -4.398438 12.046875 -4.140625 14.046875 -4.140625 C 14.703125 -4.140625 15.359375 -4.234375 16.015625 -4.421875 C 16.671875 -4.617188 17.453125 -4.890625 18.359375 -5.234375 C 18.921875 -5.460938 19.390625 -5.632812 19.765625 -5.75 C 20.140625 -5.875 20.460938 -5.9375 20.734375 -5.9375 Z M 5.0625 -12.203125 C 6.351562 -12.566406 7.828125 -13.078125 9.484375 -13.734375 C 11.148438 -14.390625 13.273438 -15.253906 15.859375 -16.328125 C 17.609375 -17.054688 18.800781 -17.539062 19.4375 -17.78125 C 18.976562 -18.78125 18.191406 -19.515625 17.078125 -19.984375 C 15.972656 -20.453125 14.695312 -20.6875 13.25 -20.6875 C 12.4375 -20.6875 11.429688 -20.378906 10.234375 -19.765625 C 9.046875 -19.148438 7.945312 -18.203125 6.9375 -16.921875 C 5.9375 -15.648438 5.3125 -14.078125 5.0625 -12.203125 Z M 5.0625 -12.203125 "/></g></g></g><g fill="#000000" fill-opacity="1"><g transform="translate(169.719788, 325.191801)"><g><path d="M 20.09375 -9.953125 C 20.09375 -12.703125 19.65625 -15.078125 18.78125 -17.078125 C 17.90625 -19.085938 16.242188 -20.09375 13.796875 -20.09375 C 13.066406 -20.09375 12.226562 -19.875 11.28125 -19.4375 C 10.34375 -19.007812 9.429688 -18.421875 8.546875 -17.671875 C 7.671875 -16.921875 6.957031 -16.09375 6.40625 -15.1875 C 6.40625 -14.601562 6.382812 -13.617188 6.34375 -12.234375 C 6.3125 -10.921875 6.296875 -10.015625 6.296875 -9.515625 C 6.296875 -8.972656 6.328125 -8.445312 6.390625 -7.9375 C 6.460938 -7.4375 6.570312 -6.8125 6.71875 -6.0625 C 6.820312 -5.507812 6.910156 -4.9375 6.984375 -4.34375 C 7.066406 -3.75 7.109375 -3.191406 7.109375 -2.671875 C 7.109375 -1.679688 6.992188 -0.9375 6.765625 -0.4375 C 6.535156 0.0625 6.050781 0.3125 5.3125 0.3125 C 4.570312 0.3125 3.976562 0.101562 3.53125 -0.3125 C 3.082031 -0.726562 2.875 -1.566406 2.90625 -2.828125 L 3 -12.984375 C 2.8125 -15.441406 2.71875 -17.128906 2.71875 -18.046875 L 2.71875 -18.828125 C 2.71875 -20.347656 2.863281 -21.738281 3.15625 -23 C 3.457031 -24.257812 3.9375 -24.890625 4.59375 -24.890625 C 5.90625 -24.890625 6.5625 -23.753906 6.5625 -21.484375 C 6.5625 -21.128906 6.507812 -20.414062 6.40625 -19.34375 L 6.328125 -18.671875 C 6.703125 -20.015625 7.390625 -21.171875 8.390625 -22.140625 C 9.398438 -23.109375 10.484375 -23.835938 11.640625 -24.328125 C 12.796875 -24.816406 13.78125 -25.0625 14.59375 -25.0625 C 17.84375 -25.0625 20.148438 -23.726562 21.515625 -21.0625 C 22.878906 -18.40625 23.5625 -15.175781 23.5625 -11.375 C 23.5625 -7.851562 23.394531 -4.953125 23.0625 -2.671875 C 22.738281 -0.390625 22.066406 0.75 21.046875 0.75 C 20.597656 0.75 20.234375 0.691406 19.953125 0.578125 C 19.679688 0.472656 19.457031 0.207031 19.28125 -0.21875 C 19.113281 -0.644531 19.03125 -1.296875 19.03125 -2.171875 C 19.03125 -2.742188 19.070312 -3.304688 19.15625 -3.859375 C 19.238281 -4.410156 19.367188 -5.101562 19.546875 -5.9375 C 19.734375 -6.882812 19.867188 -7.632812 19.953125 -8.1875 C 20.046875 -8.738281 20.09375 -9.328125 20.09375 -9.953125 Z M 20.09375 -9.953125 "/></g></g></g><g fill="#000000" fill-opacity="1"><g transform="translate(195.775838, 325.191801)"><g><path d="M 6.171875 -19.625 C 5.910156 -19.625 5.503906 -19.609375 4.953125 -19.578125 C 4.328125 -19.535156 3.800781 -19.515625 3.375 -19.515625 C 3.125 -19.515625 2.820312 -19.617188 2.46875 -19.828125 C 2.113281 -20.035156 1.804688 -20.328125 1.546875 -20.703125 C 1.296875 -21.085938 1.171875 -21.523438 1.171875 -22.015625 C 1.171875 -22.492188 1.273438 -22.941406 1.484375 -23.359375 C 1.703125 -23.785156 1.976562 -24.125 2.3125 -24.375 C 2.65625 -24.632812 3.007812 -24.765625 3.375 -24.765625 C 3.925781 -24.765625 4.941406 -24.710938 6.421875 -24.609375 C 6.472656 -26.742188 6.664062 -28.78125 7 -30.71875 C 7.34375 -32.65625 8 -33.625 8.96875 -33.625 C 9.195312 -33.625 9.429688 -33.515625 9.671875 -33.296875 C 9.910156 -33.078125 10.113281 -32.78125 10.28125 -32.40625 C 10.445312 -32.039062 10.53125 -31.644531 10.53125 -31.21875 C 10.53125 -29.382812 10.425781 -27.722656 10.21875 -26.234375 L 10.140625 -25.59375 L 9.90625 -24.53125 C 10.53125 -24.53125 11.265625 -24.535156 12.109375 -24.546875 C 12.953125 -24.566406 13.597656 -24.585938 14.046875 -24.609375 C 15.429688 -24.660156 16.816406 -24.6875 18.203125 -24.6875 C 18.703125 -24.6875 19.0625 -24.382812 19.28125 -23.78125 C 19.507812 -23.1875 19.625 -22.550781 19.625 -21.875 C 19.625 -21.15625 19.4375 -20.582031 19.0625 -20.15625 C 18.695312 -19.726562 18.296875 -19.515625 17.859375 -19.515625 L 9.875 -19.625 L 9.84375 -17.234375 C 9.800781 -15.785156 9.78125 -14.210938 9.78125 -12.515625 C 9.78125 -10.117188 9.976562 -8.226562 10.375 -6.84375 C 10.78125 -5.457031 11.566406 -4.765625 12.734375 -4.765625 C 13.710938 -4.765625 14.929688 -5.289062 16.390625 -6.34375 C 16.691406 -6.539062 16.851562 -6.640625 16.875 -6.640625 C 17.3125 -6.640625 17.601562 -6.515625 17.75 -6.265625 C 17.90625 -6.023438 17.984375 -5.601562 17.984375 -5 C 17.984375 -4.28125 17.691406 -3.507812 17.109375 -2.6875 C 16.523438 -1.863281 15.828125 -1.164062 15.015625 -0.59375 C 14.203125 -0.0195312 13.492188 0.265625 12.890625 0.265625 C 10.929688 0.265625 9.476562 -0.421875 8.53125 -1.796875 C 7.59375 -3.171875 7.003906 -4.816406 6.765625 -6.734375 C 6.535156 -8.660156 6.40625 -11.148438 6.375 -14.203125 C 6.375 -16.609375 6.304688 -18.414062 6.171875 -19.625 Z M 6.171875 -19.625 "/></g></g></g><g fill="#000000" fill-opacity="1"><g transform="translate(216.620672, 325.191801)"><g><path d="M 4.53125 -35.640625 C 4.550781 -36.128906 4.660156 -36.570312 4.859375 -36.96875 C 5.054688 -37.363281 5.304688 -37.671875 5.609375 -37.890625 C 5.910156 -38.117188 6.203125 -38.234375 6.484375 -38.234375 C 6.703125 -38.234375 6.945312 -38.125 7.21875 -37.90625 C 7.5 -37.695312 7.734375 -37.390625 7.921875 -36.984375 C 8.117188 -36.578125 8.21875 -36.101562 8.21875 -35.5625 C 8.21875 -32.800781 8.070312 -29.070312 7.78125 -24.375 C 7.625 -21.832031 7.503906 -19.660156 7.421875 -17.859375 C 7.347656 -16.066406 7.3125 -14.226562 7.3125 -12.34375 L 7.3125 -11.984375 L 17.390625 -25.140625 C 17.648438 -25.546875 17.941406 -25.875 18.265625 -26.125 C 18.585938 -26.382812 18.894531 -26.515625 19.1875 -26.515625 C 19.90625 -26.515625 20.40625 -26.328125 20.6875 -25.953125 C 20.96875 -25.585938 21.109375 -24.988281 21.109375 -24.15625 L 21.109375 -23.90625 C 21.109375 -23.226562 20.703125 -22.441406 19.890625 -21.546875 C 19.078125 -20.648438 17.910156 -19.507812 16.390625 -18.125 L 15.03125 -16.875 C 15.28125 -16.320312 15.53125 -15.695312 15.78125 -15 C 16.039062 -14.300781 16.21875 -13.828125 16.3125 -13.578125 C 16.863281 -11.992188 17.375 -10.691406 17.84375 -9.671875 C 18.25 -8.703125 18.675781 -7.828125 19.125 -7.046875 C 19.507812 -6.429688 19.898438 -5.671875 20.296875 -4.765625 C 20.328125 -4.679688 20.40625 -4.472656 20.53125 -4.140625 C 20.664062 -3.816406 20.796875 -3.460938 20.921875 -3.078125 C 21.046875 -2.703125 21.109375 -2.410156 21.109375 -2.203125 C 21.109375 -1.367188 20.875 -0.664062 20.40625 -0.09375 C 19.9375 0.46875 19.390625 0.75 18.765625 0.75 C 18.367188 0.75 18.035156 0.582031 17.765625 0.25 C 17.503906 -0.0703125 17.285156 -0.578125 17.109375 -1.265625 C 17.109375 -1.203125 16.765625 -2.023438 16.078125 -3.734375 C 15.398438 -5.441406 14.128906 -8.796875 12.265625 -13.796875 L 7.3125 -7.796875 C 7.3125 -6.734375 7.320312 -5.90625 7.34375 -5.3125 L 7.359375 -2.546875 C 7.359375 -1.847656 7.164062 -1.1875 6.78125 -0.5625 C 6.394531 0.0507812 5.90625 0.359375 5.3125 0.359375 C 4.863281 0.359375 4.492188 0.203125 4.203125 -0.109375 C 3.910156 -0.421875 3.691406 -0.785156 3.546875 -1.203125 C 3.410156 -1.628906 3.34375 -2.015625 3.34375 -2.359375 L 3.375 -4.53125 C 3.382812 -5.4375 3.46875 -6.472656 3.625 -7.640625 C 3.71875 -8.203125 3.769531 -8.757812 3.78125 -9.3125 Z M 4.53125 -35.640625 "/></g></g></g><g fill="#000000" fill-opacity="1"><g transform="translate(239.798882, 325.191801)"><g><path d="M 20.734375 -5.9375 C 21.378906 -5.9375 21.859375 -5.738281 22.171875 -5.34375 C 22.492188 -4.945312 22.65625 -4.320312 22.65625 -3.46875 C 22.65625 -1.84375 21.484375 -0.769531 19.140625 -0.25 C 16.796875 0.257812 14.484375 0.515625 12.203125 0.515625 C 10.492188 0.515625 8.84375 0.0195312 7.25 -0.96875 C 5.664062 -1.96875 4.378906 -3.320312 3.390625 -5.03125 C 2.410156 -6.738281 1.921875 -8.613281 1.921875 -10.65625 C 1.921875 -13.570312 2.394531 -16.15625 3.34375 -18.40625 C 4.289062 -20.65625 5.675781 -22.40625 7.5 -23.65625 C 9.320312 -24.90625 11.488281 -25.53125 14 -25.53125 C 15.332031 -25.53125 16.648438 -25.203125 17.953125 -24.546875 C 19.253906 -23.890625 20.328125 -22.929688 21.171875 -21.671875 C 22.023438 -20.410156 22.453125 -18.925781 22.453125 -17.21875 C 22.453125 -16.332031 22.320312 -15.59375 22.0625 -15 C 21.800781 -14.40625 21.445312 -14.03125 21 -13.875 L 5.3125 -8.265625 C 5.851562 -6.554688 6.941406 -5.441406 8.578125 -4.921875 C 10.222656 -4.398438 12.046875 -4.140625 14.046875 -4.140625 C 14.703125 -4.140625 15.359375 -4.234375 16.015625 -4.421875 C 16.671875 -4.617188 17.453125 -4.890625 18.359375 -5.234375 C 18.921875 -5.460938 19.390625 -5.632812 19.765625 -5.75 C 20.140625 -5.875 20.460938 -5.9375 20.734375 -5.9375 Z M 5.0625 -12.203125 C 6.351562 -12.566406 7.828125 -13.078125 9.484375 -13.734375 C 11.148438 -14.390625 13.273438 -15.253906 15.859375 -16.328125 C 17.609375 -17.054688 18.800781 -17.539062 19.4375 -17.78125 C 18.976562 -18.78125 18.191406 -19.515625 17.078125 -19.984375 C 15.972656 -20.453125 14.695312 -20.6875 13.25 -20.6875 C 12.4375 -20.6875 11.429688 -20.378906 10.234375 -19.765625 C 9.046875 -19.148438 7.945312 -18.203125 6.9375 -16.921875 C 5.9375 -15.648438 5.3125 -14.078125 5.0625 -12.203125 Z M 5.0625 -12.203125 "/></g></g></g><g fill="#000000" fill-opacity="1"><g transform="translate(264.636383, 325.191801)"><g><path d="M 4.90625 -19.078125 C 4.25 -19.078125 3.769531 -19.101562 3.46875 -19.15625 C 3.175781 -19.207031 2.914062 -19.394531 2.6875 -19.71875 C 2.46875 -20.050781 2.359375 -20.609375 2.359375 -21.390625 C 2.359375 -22.046875 2.472656 -22.707031 2.703125 -23.375 C 2.941406 -24.039062 3.285156 -24.375 3.734375 -24.375 L 11.609375 -24.375 C 12.054688 -24.375 12.523438 -24.40625 13.015625 -24.46875 C 13.515625 -24.539062 13.816406 -24.585938 13.921875 -24.609375 C 14.859375 -24.753906 15.617188 -24.828125 16.203125 -24.828125 C 16.804688 -24.828125 17.234375 -24.453125 17.484375 -23.703125 C 17.734375 -22.953125 17.859375 -22.15625 17.859375 -21.3125 C 17.617188 -20.132812 17.269531 -18.984375 16.8125 -17.859375 C 16.351562 -16.734375 15.800781 -15.585938 15.15625 -14.421875 C 14.519531 -13.253906 13.546875 -11.539062 12.234375 -9.28125 C 11.972656 -8.832031 11.625 -8.238281 11.1875 -7.5 C 10.757812 -6.769531 10.238281 -5.851562 9.625 -4.75 C 10.101562 -4.601562 10.75 -4.53125 11.5625 -4.53125 C 12.769531 -4.53125 14.039062 -4.675781 15.375 -4.96875 C 16.707031 -5.269531 17.796875 -5.671875 18.640625 -6.171875 C 18.691406 -6.203125 18.753906 -6.226562 18.828125 -6.25 C 18.910156 -6.28125 18.976562 -6.296875 19.03125 -6.296875 C 19.394531 -6.296875 19.703125 -6.078125 19.953125 -5.640625 C 20.210938 -5.210938 20.40625 -4.703125 20.53125 -4.109375 C 20.664062 -3.515625 20.734375 -2.992188 20.734375 -2.546875 C 20.734375 -2.109375 20.625 -1.671875 20.40625 -1.234375 C 20.195312 -0.796875 19.898438 -0.425781 19.515625 -0.125 C 19.140625 0.164062 18.726562 0.3125 18.28125 0.3125 C 17.9375 0.3125 17.546875 0.269531 17.109375 0.1875 C 17.003906 0.164062 16.828125 0.132812 16.578125 0.09375 C 16.328125 0.0625 16.085938 0.046875 15.859375 0.046875 C 14.847656 0.046875 13.78125 0.0703125 12.65625 0.125 C 12.289062 0.125 11.734375 0.132812 10.984375 0.15625 C 10.242188 0.1875 9.582031 0.203125 9 0.203125 C 8.113281 0.203125 7.382812 0.15625 6.8125 0.0625 C 6.25 -0.03125 5.753906 -0.285156 5.328125 -0.703125 C 4.898438 -1.117188 4.6875 -1.757812 4.6875 -2.625 C 4.6875 -3.050781 5.003906 -3.851562 5.640625 -5.03125 C 6.285156 -6.207031 7.300781 -7.960938 8.6875 -10.296875 C 10 -12.484375 11.066406 -14.316406 11.890625 -15.796875 C 12.722656 -17.273438 13.320312 -18.515625 13.6875 -19.515625 C 13.632812 -19.554688 13.367188 -19.578125 12.890625 -19.578125 C 11.972656 -19.578125 10.628906 -19.488281 8.859375 -19.3125 C 8.671875 -19.289062 8.15625 -19.242188 7.3125 -19.171875 C 6.46875 -19.109375 5.664062 -19.078125 4.90625 -19.078125 Z M 4.90625 -19.078125 "/></g></g></g><g fill="#000000" fill-opacity="1"><g transform="translate(286.129385, 325.191801)"><g><path d="M 20.734375 -5.9375 C 21.378906 -5.9375 21.859375 -5.738281 22.171875 -5.34375 C 22.492188 -4.945312 22.65625 -4.320312 22.65625 -3.46875 C 22.65625 -1.84375 21.484375 -0.769531 19.140625 -0.25 C 16.796875 0.257812 14.484375 0.515625 12.203125 0.515625 C 10.492188 0.515625 8.84375 0.0195312 7.25 -0.96875 C 5.664062 -1.96875 4.378906 -3.320312 3.390625 -5.03125 C 2.410156 -6.738281 1.921875 -8.613281 1.921875 -10.65625 C 1.921875 -13.570312 2.394531 -16.15625 3.34375 -18.40625 C 4.289062 -20.65625 5.675781 -22.40625 7.5 -23.65625 C 9.320312 -24.90625 11.488281 -25.53125 14 -25.53125 C 15.332031 -25.53125 16.648438 -25.203125 17.953125 -24.546875 C 19.253906 -23.890625 20.328125 -22.929688 21.171875 -21.671875 C 22.023438 -20.410156 22.453125 -18.925781 22.453125 -17.21875 C 22.453125 -16.332031 22.320312 -15.59375 22.0625 -15 C 21.800781 -14.40625 21.445312 -14.03125 21 -13.875 L 5.3125 -8.265625 C 5.851562 -6.554688 6.941406 -5.441406 8.578125 -4.921875 C 10.222656 -4.398438 12.046875 -4.140625 14.046875 -4.140625 C 14.703125 -4.140625 15.359375 -4.234375 16.015625 -4.421875 C 16.671875 -4.617188 17.453125 -4.890625 18.359375 -5.234375 C 18.921875 -5.460938 19.390625 -5.632812 19.765625 -5.75 C 20.140625 -5.875 20.460938 -5.9375 20.734375 -5.9375 Z M 5.0625 -12.203125 C 6.351562 -12.566406 7.828125 -13.078125 9.484375 -13.734375 C 11.148438 -14.390625 13.273438 -15.253906 15.859375 -16.328125 C 17.609375 -17.054688 18.800781 -17.539062 19.4375 -17.78125 C 18.976562 -18.78125 18.191406 -19.515625 17.078125 -19.984375 C 15.972656 -20.453125 14.695312 -20.6875 13.25 -20.6875 C 12.4375 -20.6875 11.429688 -20.378906 10.234375 -19.765625 C 9.046875 -19.148438 7.945312 -18.203125 6.9375 -16.921875 C 5.9375 -15.648438 5.3125 -14.078125 5.0625 -12.203125 Z M 10.40625 -29.09375 C 10.40625 -29.675781 10.523438 -30.148438 10.765625 -30.515625 C 11.003906 -30.878906 11.375 -31.273438 11.875 -31.703125 C 12.15625 -31.984375 12.472656 -32.363281 12.828125 -32.84375 C 13.179688 -33.332031 13.519531 -33.816406 13.84375 -34.296875 C 14.675781 -35.554688 15.390625 -36.515625 15.984375 -37.171875 C 16.585938 -37.828125 17.207031 -38.15625 17.84375 -38.15625 C 18.375 -38.15625 18.820312 -37.9375 19.1875 -37.5 C 19.550781 -37.070312 19.734375 -36.488281 19.734375 -35.75 C 19.734375 -35.351562 19.191406 -34.382812 18.109375 -32.84375 C 17.035156 -31.3125 15.863281 -29.894531 14.59375 -28.59375 C 13.332031 -27.300781 12.367188 -26.65625 11.703125 -26.65625 C 11.179688 -26.65625 10.832031 -26.785156 10.65625 -27.046875 C 10.488281 -27.316406 10.40625 -27.75 10.40625 -28.34375 Z M 10.40625 -29.09375 "/></g></g></g><g fill="#000000" fill-opacity="1"><g transform="translate(310.966886, 325.191801)"><g><path d="M 10.578125 0.796875 C 8.921875 0.796875 7.390625 0.46875 5.984375 -0.1875 C 4.585938 -0.851562 3.890625 -2.113281 3.890625 -3.96875 C 3.890625 -4.257812 3.972656 -4.625 4.140625 -5.0625 C 4.316406 -5.507812 4.535156 -5.890625 4.796875 -6.203125 C 5.054688 -6.523438 5.316406 -6.6875 5.578125 -6.6875 C 5.660156 -6.6875 5.875 -6.53125 6.21875 -6.21875 C 6.664062 -5.644531 7.101562 -5.21875 7.53125 -4.9375 C 7.957031 -4.65625 8.4375 -4.460938 8.96875 -4.359375 C 9.507812 -4.265625 10.226562 -4.21875 11.125 -4.21875 C 12.019531 -4.21875 12.988281 -4.332031 14.03125 -4.5625 C 15.082031 -4.800781 15.96875 -5.078125 16.6875 -5.390625 C 17.414062 -5.703125 17.78125 -5.953125 17.78125 -6.140625 C 17.78125 -6.609375 17.554688 -6.992188 17.109375 -7.296875 C 16.660156 -7.597656 16.109375 -7.832031 15.453125 -8 C 14.796875 -8.175781 13.828125 -8.394531 12.546875 -8.65625 C 10.523438 -9.039062 8.859375 -9.441406 7.546875 -9.859375 C 6.242188 -10.285156 5.113281 -10.96875 4.15625 -11.90625 C 3.195312 -12.851562 2.71875 -14.128906 2.71875 -15.734375 C 2.71875 -17.722656 3.257812 -19.460938 4.34375 -20.953125 C 5.4375 -22.453125 6.828125 -23.601562 8.515625 -24.40625 C 10.203125 -25.207031 11.898438 -25.609375 13.609375 -25.609375 C 14.734375 -25.609375 15.738281 -25.382812 16.625 -24.9375 C 17.519531 -24.488281 18.210938 -23.894531 18.703125 -23.15625 C 19.191406 -22.425781 19.4375 -21.640625 19.4375 -20.796875 C 19.4375 -19.429688 19.332031 -18.316406 19.125 -17.453125 C 18.925781 -16.585938 18.4375 -16.15625 17.65625 -16.15625 C 17.269531 -16.15625 17.015625 -16.332031 16.890625 -16.6875 C 16.773438 -17.050781 16.71875 -17.613281 16.71875 -18.375 C 16.71875 -19.1875 16.40625 -19.75 15.78125 -20.0625 C 15.164062 -20.375 14.234375 -20.53125 12.984375 -20.53125 C 12.117188 -20.53125 11.160156 -20.3125 10.109375 -19.875 C 9.054688 -19.445312 8.15625 -18.882812 7.40625 -18.1875 C 6.664062 -17.5 6.296875 -16.785156 6.296875 -16.046875 C 6.296875 -15.285156 6.582031 -14.664062 7.15625 -14.1875 C 7.726562 -13.71875 8.4375 -13.359375 9.28125 -13.109375 C 10.125 -12.859375 11.289062 -12.582031 12.78125 -12.28125 C 14.613281 -11.925781 16.09375 -11.566406 17.21875 -11.203125 C 18.34375 -10.835938 19.296875 -10.269531 20.078125 -9.5 C 20.867188 -8.726562 21.265625 -7.695312 21.265625 -6.40625 C 21.265625 -4.757812 20.628906 -3.394531 19.359375 -2.3125 C 18.097656 -1.238281 16.625 -0.453125 14.9375 0.046875 C 13.257812 0.546875 11.804688 0.796875 10.578125 0.796875 Z M 10.578125 0.796875 "/></g></g></g></svg>