<svg xmlns="http://www.w3.org/2000/svg" xmlns:xlink="http://www.w3.org/1999/xlink" width="1122" zoomAndPan="magnify" viewBox="0 0 841.92 595.499987" height="793" preserveAspectRatio="xMidYMid meet" version="1.0"><defs><g/><clipPath id="ce533a710b"><path d="M 565 64 L 681 64 L 681 216 L 565 216 Z M 565 64 " clip-rule="nonzero"/></clipPath><clipPath id="632862fe26"><path d="M 532.578125 107.203125 L 807.472656 -31.378906 L 919.753906 191.347656 L 644.855469 329.925781 Z M 532.578125 107.203125 " clip-rule="nonzero"/></clipPath><clipPath id="24777edbf5"><path d="M 532.578125 107.203125 L 807.472656 -31.378906 L 919.753906 191.347656 L 644.855469 329.925781 Z M 532.578125 107.203125 " clip-rule="nonzero"/></clipPath><clipPath id="4c3994c2f7"><path d="M 693 2 L 841.46875 2 L 841.46875 150 L 693 150 Z M 693 2 " clip-rule="nonzero"/></clipPath><clipPath id="4b9c55748d"><path d="M 532.578125 107.203125 L 807.472656 -31.378906 L 919.753906 191.347656 L 644.855469 329.925781 Z M 532.578125 107.203125 " clip-rule="nonzero"/></clipPath><clipPath id="8555d5d38b"><path d="M 532.578125 107.203125 L 807.472656 -31.378906 L 919.753906 191.347656 L 644.855469 329.925781 Z M 532.578125 107.203125 " clip-rule="nonzero"/></clipPath><clipPath id="88661d8b7f"><path d="M 659 166 L 813 166 L 813 262 L 659 262 Z M 659 166 " clip-rule="nonzero"/></clipPath><clipPath id="c28e0ff44d"><path d="M 532.578125 107.203125 L 807.472656 -31.378906 L 919.753906 191.347656 L 644.855469 329.925781 Z M 532.578125 107.203125 " clip-rule="nonzero"/></clipPath><clipPath id="8f196de316"><path d="M 532.578125 107.203125 L 807.472656 -31.378906 L 919.753906 191.347656 L 644.855469 329.925781 Z M 532.578125 107.203125 " clip-rule="nonzero"/></clipPath><clipPath id="404e5f0dae"><path d="M 596 215 L 759 215 L 759 370 L 596 370 Z M 596 215 " clip-rule="nonzero"/></clipPath><clipPath id="81fcec30c8"><path d="M 601.757812 208.605469 L 759.636719 215.867188 L 752.339844 374.492188 L 594.464844 367.230469 Z M 601.757812 208.605469 " clip-rule="nonzero"/></clipPath><clipPath id="599d8d81b0"><path d="M 601.757812 208.605469 L 759.636719 215.867188 L 752.339844 374.492188 L 594.464844 367.230469 Z M 601.757812 208.605469 " clip-rule="nonzero"/></clipPath><clipPath id="acfeacd914"><path d="M 601.753906 208.71875 L 759.832031 215.988281 L 752.542969 374.46875 L 594.464844 367.199219 Z M 601.753906 208.71875 " clip-rule="nonzero"/></clipPath><clipPath id="635d3e4200"><path d="M 601.753906 208.71875 L 759.476562 215.972656 L 752.1875 374.449219 L 594.464844 367.195312 Z M 601.753906 208.71875 " clip-rule="nonzero"/></clipPath><clipPath id="344199962c"><path d="M 608 113 L 841.46875 113 L 841.46875 369 L 608 369 Z M 608 113 " clip-rule="nonzero"/></clipPath></defs><g clip-path="url(#ce533a710b)"><g clip-path="url(#632862fe26)"><g clip-path="url(#24777edbf5)"><path fill="#7ed957" d="M 621.65625 188.453125 C 595.800781 179.929688 581.230469 151.675781 589.902344 125.871094 C 598.34375 100.769531 625.226562 86.898438 650.480469 94.371094 L 647.839844 100.886719 C 646.851562 103.328125 649.1875 105.800781 651.683594 104.953125 L 678.277344 95.890625 C 680.050781 95.289062 680.875 93.25 680.023438 91.582031 L 667.246094 66.558594 C 666.050781 64.214844 662.648438 64.363281 661.660156 66.804688 L 658.527344 74.527344 C 621.613281 62.417969 581.714844 82.558594 569.546875 119.46875 C 557.367188 156.40625 577.511719 196.371094 614.453125 208.550781 L 633.742188 214.910156 C 639.339844 216.753906 645.371094 213.714844 647.21875 208.117188 C 649.0625 202.519531 646.019531 196.488281 640.425781 194.640625 L 621.65625 188.453125 " fill-opacity="1" fill-rule="nonzero"/></g></g></g><g clip-path="url(#4c3994c2f7)"><g clip-path="url(#4b9c55748d)"><g clip-path="url(#8555d5d38b)"><path fill="#7ed957" d="M 795.28125 5.828125 C 758.289062 -6.484375 718.210938 13.667969 706.007812 50.671875 L 694.261719 86.308594 C 692.417969 91.902344 695.457031 97.933594 701.054688 99.78125 C 706.652344 101.625 712.683594 98.585938 714.527344 92.988281 L 726.277344 57.355469 C 734.769531 31.585938 762.644531 17.535156 788.410156 26.03125 C 814.175781 34.527344 828.230469 62.398438 819.734375 88.164062 L 809.144531 120.292969 L 801.601562 117.804688 C 799.101562 116.980469 796.789062 119.480469 797.804688 121.910156 L 808.617188 147.84375 C 809.335938 149.570312 811.425781 150.257812 813.03125 149.296875 L 837.148438 134.882812 C 839.410156 133.53125 839.035156 130.144531 836.53125 129.320312 L 829.410156 126.972656 L 839.785156 95.496094 C 851.996094 58.464844 832.28125 18.140625 795.28125 5.828125 " fill-opacity="1" fill-rule="nonzero"/></g></g></g><g clip-path="url(#88661d8b7f)"><g clip-path="url(#c28e0ff44d)"><g clip-path="url(#8f196de316)"><path fill="#7ed957" d="M 804.847656 167.398438 C 799.25 165.554688 793.21875 168.59375 791.375 174.191406 L 770.492188 237.523438 L 689.410156 210.792969 L 691.644531 204.007812 C 692.46875 201.507812 689.972656 199.195312 687.539062 200.207031 L 661.609375 211.019531 C 659.878906 211.742188 659.191406 213.828125 660.152344 215.4375 L 674.570312 239.554688 C 675.921875 241.8125 679.304688 241.441406 680.128906 238.9375 L 682.726562 231.058594 L 773.945312 261.132812 C 776.742188 262.054688 779.652344 261.753906 782.089844 260.527344 C 784.527344 259.296875 786.496094 257.136719 787.417969 254.339844 L 811.640625 180.871094 C 813.484375 175.277344 810.445312 169.242188 804.847656 167.398438 " fill-opacity="1" fill-rule="nonzero"/></g></g></g><g fill="#545454" fill-opacity="1"><g transform="translate(0.313197, 317.558609)"><g><path d="M 53.265625 -132.6875 L 0.9375 -132.6875 L 0.9375 -163.515625 L 143.421875 -163.515625 L 143.421875 -132.6875 L 91.09375 -132.6875 L 91.09375 0 L 53.265625 0 Z M 53.265625 -132.6875 "/></g></g></g><g fill="#545454" fill-opacity="1"><g transform="translate(120.847338, 317.558609)"><g><path d="M 218.640625 -125.671875 L 173.09375 0 L 138.046875 0 L 109.78125 -78.015625 L 80.59375 0 L 45.546875 0 L 0.234375 -125.671875 L 34.578125 -125.671875 L 64.234375 -40.640625 L 95.078125 -125.671875 L 125.90625 -125.671875 L 155.8125 -40.640625 L 186.40625 -125.671875 Z M 218.640625 -125.671875 "/></g></g></g><g fill="#545454" fill-opacity="1"><g transform="translate(315.898119, 317.558609)"><g><path d="M 16.8125 -125.671875 L 53.265625 -125.671875 L 53.265625 0 L 16.8125 0 Z M 35.03125 -143.1875 C 28.332031 -143.1875 22.878906 -145.132812 18.671875 -149.03125 C 14.472656 -152.925781 12.375 -157.753906 12.375 -163.515625 C 12.375 -169.273438 14.472656 -174.101562 18.671875 -178 C 22.878906 -181.894531 28.332031 -183.84375 35.03125 -183.84375 C 41.726562 -183.84375 47.175781 -181.972656 51.375 -178.234375 C 55.582031 -174.492188 57.6875 -169.820312 57.6875 -164.21875 C 57.6875 -158.144531 55.582031 -153.117188 51.375 -149.140625 C 47.175781 -145.171875 41.726562 -143.1875 35.03125 -143.1875 Z M 35.03125 -143.1875 "/></g></g></g><g fill="#545454" fill-opacity="1"><g transform="translate(362.382852, 317.558609)"><g><path d="M 77.546875 1.875 C 64.160156 1.875 52.132812 -0.890625 41.46875 -6.421875 C 30.800781 -11.953125 22.46875 -19.625 16.46875 -29.4375 C 10.46875 -39.25 7.46875 -50.382812 7.46875 -62.84375 C 7.46875 -75.300781 10.46875 -86.429688 16.46875 -96.234375 C 22.46875 -106.046875 30.800781 -113.71875 41.46875 -119.25 C 52.132812 -124.78125 64.160156 -127.546875 77.546875 -127.546875 C 90.785156 -127.546875 102.347656 -124.78125 112.234375 -119.25 C 122.128906 -113.71875 129.332031 -105.816406 133.84375 -95.546875 L 105.578125 -80.359375 C 99.035156 -91.878906 89.613281 -97.640625 77.3125 -97.640625 C 67.8125 -97.640625 59.945312 -94.523438 53.71875 -88.296875 C 47.488281 -82.066406 44.375 -73.582031 44.375 -62.84375 C 44.375 -52.09375 47.488281 -43.601562 53.71875 -37.375 C 59.945312 -31.144531 67.8125 -28.03125 77.3125 -28.03125 C 89.769531 -28.03125 99.191406 -33.789062 105.578125 -45.3125 L 133.84375 -29.90625 C 129.332031 -19.9375 122.128906 -12.144531 112.234375 -6.53125 C 102.347656 -0.925781 90.785156 1.875 77.546875 1.875 Z M 77.546875 1.875 "/></g></g></g><g fill="#545454" fill-opacity="1"><g transform="translate(476.609947, 317.558609)"><g><path d="M 139.921875 -62.375 C 139.921875 -61.90625 139.6875 -58.632812 139.21875 -52.5625 L 44.15625 -52.5625 C 45.863281 -44.769531 49.910156 -38.613281 56.296875 -34.09375 C 62.679688 -29.582031 70.625 -27.328125 80.125 -27.328125 C 86.664062 -27.328125 92.460938 -28.300781 97.515625 -30.25 C 102.578125 -32.195312 107.289062 -35.273438 111.65625 -39.484375 L 131.046875 -18.453125 C 119.210938 -4.898438 101.925781 1.875 79.1875 1.875 C 65.019531 1.875 52.484375 -0.890625 41.578125 -6.421875 C 30.679688 -11.953125 22.269531 -19.625 16.34375 -29.4375 C 10.425781 -39.25 7.46875 -50.382812 7.46875 -62.84375 C 7.46875 -75.144531 10.390625 -86.238281 16.234375 -96.125 C 22.078125 -106.007812 30.097656 -113.71875 40.296875 -119.25 C 50.492188 -124.78125 61.898438 -127.546875 74.515625 -127.546875 C 86.816406 -127.546875 97.953125 -124.894531 107.921875 -119.59375 C 117.890625 -114.300781 125.710938 -106.707031 131.390625 -96.8125 C 137.078125 -86.925781 139.921875 -75.445312 139.921875 -62.375 Z M 74.75 -99.984375 C 66.5 -99.984375 59.566406 -97.644531 53.953125 -92.96875 C 48.347656 -88.300781 44.925781 -81.914062 43.6875 -73.8125 L 105.578125 -73.8125 C 104.335938 -81.757812 100.910156 -88.109375 95.296875 -92.859375 C 89.691406 -97.609375 82.84375 -99.984375 74.75 -99.984375 Z M 74.75 -99.984375 "/></g></g></g><g clip-path="url(#404e5f0dae)"><g clip-path="url(#81fcec30c8)"><g clip-path="url(#599d8d81b0)"><g clip-path="url(#acfeacd914)"><g clip-path="url(#635d3e4200)"><path fill="#ffde59" d="M 751.019531 246.480469 C 747.222656 249.941406 735.992188 257.351562 725.328125 262.867188 C 712.597656 269.445312 703.566406 271.800781 701.164062 269.164062 C 700.613281 268.5625 700.359375 267.636719 700.378906 266.429688 C 700.570312 266.527344 700.761719 266.632812 700.949219 266.746094 C 701.644531 267.164062 702.292969 267.691406 702.867188 268.324219 C 703.242188 268.734375 703.570312 269.171875 703.851562 269.632812 C 706.792969 269.863281 712.273438 268.523438 720.945312 264.402344 L 720.257812 257.886719 C 719.945312 254.945312 717.761719 252.546875 714.859375 251.96875 L 707.382812 250.472656 L 706.796875 250.355469 C 707.664062 248.859375 708.617188 247.300781 709.652344 245.679688 C 716.121094 235.566406 724.53125 225.066406 728.328125 221.601562 C 731.652344 218.570312 735.953125 217.015625 740.445312 217.222656 C 744.9375 217.429688 749.082031 219.375 752.113281 222.695312 C 758.367188 229.554688 757.878906 240.226562 751.019531 246.480469 Z M 753.683594 221.265625 C 750.269531 217.523438 745.601562 215.332031 740.542969 215.101562 C 735.484375 214.867188 730.636719 216.621094 726.894531 220.03125 C 723 223.585938 714.421875 234.28125 707.863281 244.535156 C 706.65625 246.421875 705.566406 248.214844 704.585938 249.914062 L 703.992188 249.796875 L 676.3125 244.261719 C 674.203125 243.839844 672.019531 244.445312 670.429688 245.894531 L 599.03125 311.015625 C 596.273438 313.53125 596.074219 317.808594 598.59375 320.566406 L 641.277344 367.367188 C 643.792969 370.125 648.066406 370.320312 650.828125 367.804688 L 722.226562 302.683594 C 723.816406 301.234375 724.621094 299.117188 724.390625 296.980469 L 721.3125 267.84375 C 714.367188 271.070312 708.917969 272.761719 705.042969 272.898438 C 705.457031 275.667969 704.527344 278.582031 702.304688 280.609375 C 698.757812 283.847656 693.253906 283.59375 690.019531 280.042969 C 686.78125 276.496094 687.035156 270.996094 690.585938 267.757812 C 692.589844 265.925781 695.226562 265.214844 697.71875 265.582031 C 697.914062 265.609375 698.105469 265.648438 698.296875 265.6875 C 698.132812 267.828125 698.566406 269.46875 699.59375 270.597656 C 700.5625 271.660156 702.035156 272.238281 703.996094 272.328125 C 708.667969 272.542969 716.132812 270.011719 726.300781 264.753906 C 737.117188 259.164062 748.554688 251.601562 752.449219 248.050781 C 760.175781 241.003906 760.726562 228.988281 753.683594 221.265625 " fill-opacity="1" fill-rule="nonzero"/></g></g></g></g></g><g fill="#545454" fill-opacity="1"><g transform="translate(0.313197, 537.483301)"><g><path d="M 60.421875 -150.53125 L 1.0625 -150.53125 L 1.0625 -185.515625 L 162.734375 -185.515625 L 162.734375 -150.53125 L 103.359375 -150.53125 L 103.359375 0 L 60.421875 0 Z M 60.421875 -150.53125 "/></g></g></g><g fill="#545454" fill-opacity="1"><g transform="translate(137.068665, 537.483301)"><g><path d="M 58.578125 -123.765625 C 63.523438 -130.660156 70.191406 -135.875 78.578125 -139.40625 C 86.972656 -142.9375 96.648438 -144.703125 107.609375 -144.703125 L 107.609375 -106.546875 C 103.015625 -106.898438 99.921875 -107.078125 98.328125 -107.078125 C 86.484375 -107.078125 77.203125 -103.757812 70.484375 -97.125 C 63.773438 -90.5 60.421875 -80.5625 60.421875 -67.3125 L 60.421875 0 L 19.078125 0 L 19.078125 -142.59375 L 58.578125 -142.59375 Z M 58.578125 -123.765625 "/></g></g></g><g fill="#545454" fill-opacity="1"><g transform="translate(224.263498, 537.483301)"><g><path d="M 158.75 -70.765625 C 158.75 -70.234375 158.484375 -66.519531 157.953125 -59.625 L 50.09375 -59.625 C 52.03125 -50.789062 56.617188 -43.8125 63.859375 -38.6875 C 71.109375 -33.570312 80.125 -31.015625 90.90625 -31.015625 C 98.320312 -31.015625 104.898438 -32.117188 110.640625 -34.328125 C 116.390625 -36.535156 121.738281 -40.023438 126.6875 -44.796875 L 148.6875 -20.9375 C 135.257812 -5.5625 115.644531 2.125 89.84375 2.125 C 73.769531 2.125 59.546875 -1.007812 47.171875 -7.28125 C 34.804688 -13.5625 25.265625 -22.265625 18.546875 -33.390625 C 11.835938 -44.523438 8.484375 -57.160156 8.484375 -71.296875 C 8.484375 -85.253906 11.796875 -97.84375 18.421875 -109.0625 C 25.046875 -120.28125 34.144531 -129.023438 45.71875 -135.296875 C 57.289062 -141.566406 70.234375 -144.703125 84.546875 -144.703125 C 98.503906 -144.703125 111.132812 -141.695312 122.4375 -135.6875 C 133.75 -129.6875 142.628906 -121.078125 149.078125 -109.859375 C 155.523438 -98.640625 158.75 -85.609375 158.75 -70.765625 Z M 84.8125 -113.4375 C 75.445312 -113.4375 67.582031 -110.785156 61.21875 -105.484375 C 54.863281 -100.179688 50.976562 -92.9375 49.5625 -83.75 L 119.796875 -83.75 C 118.378906 -92.757812 114.488281 -99.957031 108.125 -105.34375 C 101.769531 -110.738281 94 -113.4375 84.8125 -113.4375 Z M 84.8125 -113.4375 "/></g></g></g><g fill="#545454" fill-opacity="1"><g transform="translate(364.46436, 537.483301)"><g><path d="M 105.75 -144.703125 C 123.414062 -144.703125 137.679688 -139.398438 148.546875 -128.796875 C 159.410156 -118.203125 164.84375 -102.476562 164.84375 -81.625 L 164.84375 0 L 123.5 0 L 123.5 -75.265625 C 123.5 -86.578125 121.023438 -95.015625 116.078125 -100.578125 C 111.128906 -106.140625 103.972656 -108.921875 94.609375 -108.921875 C 84.191406 -108.921875 75.890625 -105.695312 69.703125 -99.25 C 63.515625 -92.800781 60.421875 -83.21875 60.421875 -70.5 L 60.421875 0 L 19.078125 0 L 19.078125 -142.59375 L 58.578125 -142.59375 L 58.578125 -125.890625 C 64.046875 -131.898438 70.84375 -136.535156 78.96875 -139.796875 C 87.101562 -143.066406 96.03125 -144.703125 105.75 -144.703125 Z M 105.75 -144.703125 "/></g></g></g><g fill="#545454" fill-opacity="1"><g transform="translate(520.567073, 537.483301)"><g><path d="M 164.3125 -196.65625 L 164.3125 0 L 124.828125 0 L 124.828125 -16.4375 C 114.578125 -4.0625 99.734375 2.125 80.296875 2.125 C 66.867188 2.125 54.722656 -0.878906 43.859375 -6.890625 C 32.992188 -12.898438 24.46875 -21.46875 18.28125 -32.59375 C 12.101562 -43.726562 9.015625 -56.628906 9.015625 -71.296875 C 9.015625 -85.960938 12.101562 -98.859375 18.28125 -109.984375 C 24.46875 -121.117188 32.992188 -129.6875 43.859375 -135.6875 C 54.722656 -141.695312 66.867188 -144.703125 80.296875 -144.703125 C 98.503906 -144.703125 112.726562 -138.960938 122.96875 -127.484375 L 122.96875 -196.65625 Z M 87.453125 -31.796875 C 97.878906 -31.796875 106.535156 -35.375 113.421875 -42.53125 C 120.316406 -49.6875 123.765625 -59.273438 123.765625 -71.296875 C 123.765625 -83.304688 120.316406 -92.890625 113.421875 -100.046875 C 106.535156 -107.203125 97.878906 -110.78125 87.453125 -110.78125 C 76.859375 -110.78125 68.113281 -107.203125 61.21875 -100.046875 C 54.332031 -92.890625 50.890625 -83.304688 50.890625 -71.296875 C 50.890625 -59.273438 54.332031 -49.6875 61.21875 -42.53125 C 68.113281 -35.375 76.859375 -31.796875 87.453125 -31.796875 Z M 87.453125 -31.796875 "/></g></g></g><g fill="#545454" fill-opacity="1"><g transform="translate(676.934775, 537.483301)"><g><path d="M 160.609375 -142.59375 L 96.203125 8.75 C 89.671875 25.175781 81.585938 36.742188 71.953125 43.453125 C 62.328125 50.171875 50.710938 53.53125 37.109375 53.53125 C 29.679688 53.53125 22.34375 52.378906 15.09375 50.078125 C 7.851562 47.785156 1.9375 44.609375 -2.65625 40.546875 L 12.453125 11.125 C 15.640625 13.957031 19.304688 16.164062 23.453125 17.75 C 27.609375 19.34375 31.71875 20.140625 35.78125 20.140625 C 41.4375 20.140625 46.03125 18.769531 49.5625 16.03125 C 53.09375 13.289062 56.273438 8.742188 59.109375 2.390625 L 59.625 1.0625 L -2.125 -142.59375 L 40.546875 -142.59375 L 80.5625 -45.84375 L 120.859375 -142.59375 Z M 160.609375 -142.59375 "/></g></g></g><g clip-path="url(#344199962c)"><path stroke-linecap="butt" transform="matrix(0.712523, 0.230981, -0.230981, 0.712523, 735.198726, 225.799212)" fill="none" stroke-linejoin="miter" d="M -0.00312905 14.498366 L 40.55602 14.502183 " stroke="#7ed957" stroke-width="29" stroke-opacity="1" stroke-miterlimit="4"/></g></svg>