<svg xmlns="http://www.w3.org/2000/svg" xmlns:xlink="http://www.w3.org/1999/xlink" width="500" zoomAndPan="magnify" viewBox="0 0 375 374.999991" height="500" preserveAspectRatio="xMidYMid meet" version="1.0"><defs><g/><clipPath id="8966c7a19d"><path d="M 8.863281 180 L 365.863281 180 L 365.863281 375 L 8.863281 375 Z M 8.863281 180 " clip-rule="nonzero"/></clipPath></defs><g clip-path="url(#8966c7a19d)"><path fill="#231f20" d="M 308.070312 204.097656 L 277.742188 182.351562 L 267.375 196.875 L 297.707031 218.699219 C 329.1875 241.214844 347.921875 277.792969 347.921875 316.523438 L 347.921875 348.335938 C 347.921875 353.253906 343.929688 357.25 339.015625 357.25 L 35.710938 357.25 C 30.796875 357.25 26.804688 353.253906 26.804688 348.335938 L 26.804688 314.753906 C 26.804688 277.101562 44.773438 241.136719 74.871094 218.46875 L 105.816406 195.183594 L 95.066406 180.890625 L 64.121094 204.175781 C 29.566406 230.070312 8.914062 271.414062 8.914062 314.675781 L 8.914062 348.257812 C 8.914062 363.011719 20.890625 375 35.710938 375 L 339.015625 375 C 353.757812 375 365.816406 363.011719 365.816406 348.179688 L 365.816406 316.367188 C 365.816406 271.953125 344.238281 229.996094 308.070312 204.097656 Z M 308.070312 204.097656 " fill-opacity="1" fill-rule="nonzero"/></g><path fill="#231f20" d="M 187.363281 196.414062 C 241.496094 196.414062 285.496094 152.382812 285.496094 98.207031 C 285.496094 44.03125 241.496094 0 187.363281 0 C 133.230469 0 89.230469 44.03125 89.230469 98.207031 C 89.230469 152.382812 133.230469 196.414062 187.363281 196.414062 Z M 187.363281 17.828125 C 231.59375 17.828125 267.683594 53.945312 267.683594 98.207031 C 267.683594 142.46875 231.59375 178.585938 187.363281 178.585938 C 143.132812 178.585938 107.046875 142.546875 107.046875 98.207031 C 107.046875 53.867188 143.058594 17.828125 187.363281 17.828125 Z M 187.363281 17.828125 " fill-opacity="1" fill-rule="nonzero"/><g fill="#000000" fill-opacity="1"><g transform="translate(129.832967, 325.191801)"><g><path d="M 4.328125 -19.5 C 4.328125 -21.550781 4.378906 -23.265625 4.484375 -24.640625 C 4.585938 -26.015625 4.820312 -27.140625 5.1875 -28.015625 C 5.550781 -28.898438 6.085938 -29.363281 6.796875 -29.40625 C 6.984375 -29.40625 7.222656 -29.203125 7.515625 -28.796875 C 7.566406 -28.742188 7.664062 -28.640625 7.8125 -28.484375 C 7.957031 -28.335938 8.09375 -28.265625 8.21875 -28.265625 C 8.664062 -28.710938 9.269531 -29.160156 10.03125 -29.609375 C 10.789062 -30.054688 11.613281 -30.414062 12.5 -30.6875 C 13.394531 -30.96875 14.25 -31.09375 15.0625 -31.0625 C 18.226562 -31.0625 20.457031 -30.351562 21.75 -28.9375 C 23.039062 -27.53125 23.6875 -25.445312 23.6875 -22.6875 C 23.6875 -19.800781 23.066406 -17.394531 21.828125 -15.46875 C 20.585938 -13.550781 18.835938 -12.125 16.578125 -11.1875 C 14.328125 -10.257812 11.671875 -9.796875 8.609375 -9.796875 C 8.347656 -9.796875 8.046875 -9.847656 7.703125 -9.953125 C 7.710938 -9.785156 7.703125 -9.46875 7.671875 -9 C 7.617188 -8.195312 7.597656 -7.296875 7.609375 -6.296875 C 7.617188 -5.296875 7.691406 -3.742188 7.828125 -1.640625 C 7.828125 -0.878906 7.640625 -0.367188 7.265625 -0.109375 C 6.898438 0.140625 6.519531 0.265625 6.125 0.265625 C 5.5 0.265625 5.015625 0.191406 4.671875 0.046875 C 4.335938 -0.0859375 4.066406 -0.554688 3.859375 -1.359375 C 3.648438 -2.160156 3.632812 -3.460938 3.8125 -5.265625 L 4.328125 -10.703125 C 4.222656 -10.890625 4.125 -11.164062 4.03125 -11.53125 C 3.9375 -11.894531 3.890625 -12.179688 3.890625 -12.390625 C 3.890625 -12.878906 3.957031 -13.535156 4.09375 -14.359375 C 4.25 -15.171875 4.328125 -15.90625 4.328125 -16.5625 Z M 10.265625 -15.09375 C 12.023438 -15.09375 13.691406 -15.332031 15.265625 -15.8125 C 16.835938 -16.300781 18.101562 -17.015625 19.0625 -17.953125 C 20.019531 -18.890625 20.5 -20.007812 20.5 -21.3125 C 20.5 -22.832031 19.960938 -24.046875 18.890625 -24.953125 C 17.828125 -25.859375 16.210938 -26.3125 14.046875 -26.3125 C 13.097656 -26.3125 11.945312 -26.132812 10.59375 -25.78125 C 9.238281 -25.425781 8.40625 -25.0625 8.09375 -24.6875 C 8.09375 -24.632812 8.050781 -24.1875 7.96875 -23.34375 C 7.894531 -22.507812 7.785156 -19.914062 7.640625 -15.5625 C 8.160156 -15.40625 8.609375 -15.285156 8.984375 -15.203125 C 9.359375 -15.128906 9.785156 -15.09375 10.265625 -15.09375 Z M 10.265625 -15.09375 "/></g></g></g><g fill="#000000" fill-opacity="1"><g transform="translate(155.44826, 325.191801)"><g><path d="M 14.4375 -20.296875 C 11.8125 -20.296875 9.929688 -19.566406 8.796875 -18.109375 C 7.671875 -16.660156 7.109375 -14.4375 7.109375 -11.4375 L 7.109375 -10.53125 L 7.359375 -2.546875 C 7.359375 -2.242188 7.289062 -1.878906 7.15625 -1.453125 C 7.03125 -1.035156 6.828125 -0.664062 6.546875 -0.34375 C 6.265625 -0.03125 5.894531 0.125 5.4375 0.125 C 4.613281 0.125 4.046875 -0.125 3.734375 -0.625 C 3.421875 -1.125 3.265625 -1.941406 3.265625 -3.078125 C 3.265625 -3.835938 3.28125 -4.632812 3.3125 -5.46875 C 3.332031 -5.75 3.34375 -6.113281 3.34375 -6.5625 L 3.34375 -9 C 3.34375 -9.96875 3.390625 -11.296875 3.484375 -12.984375 C 3.578125 -14.679688 3.789062 -17.644531 4.125 -21.875 C 4.175781 -22.738281 4.367188 -23.421875 4.703125 -23.921875 C 5.035156 -24.429688 5.515625 -24.6875 6.140625 -24.6875 C 6.484375 -24.6875 6.804688 -24.457031 7.109375 -24 C 7.410156 -23.539062 7.5625 -22.804688 7.5625 -21.796875 C 7.5625 -20.265625 7.539062 -19.328125 7.5 -18.984375 C 7.84375 -20.085938 8.507812 -21.117188 9.5 -22.078125 C 10.488281 -23.035156 11.570312 -23.796875 12.75 -24.359375 C 13.925781 -24.929688 14.945312 -25.21875 15.8125 -25.21875 C 17.226562 -25.21875 18.476562 -24.941406 19.5625 -24.390625 C 20.65625 -23.835938 21.203125 -22.742188 21.203125 -21.109375 C 21.203125 -20.585938 21.085938 -20.109375 20.859375 -19.671875 C 20.640625 -19.242188 20.351562 -18.90625 20 -18.65625 C 19.644531 -18.414062 19.28125 -18.296875 18.90625 -18.296875 C 18.570312 -18.296875 18.328125 -18.359375 18.171875 -18.484375 C 18.015625 -18.609375 17.867188 -18.796875 17.734375 -19.046875 C 17.523438 -19.453125 17.242188 -19.757812 16.890625 -19.96875 C 16.535156 -20.1875 15.914062 -20.296875 15.03125 -20.296875 Z M 14.4375 -20.296875 "/></g></g></g><g fill="#000000" fill-opacity="1"><g transform="translate(176.3968, 325.191801)"><g><path d="M 12.390625 0.59375 C 10.578125 0.59375 8.863281 -0.0390625 7.25 -1.3125 C 5.644531 -2.59375 4.363281 -4.210938 3.40625 -6.171875 C 2.445312 -8.140625 1.96875 -10.078125 1.96875 -11.984375 C 1.96875 -14.984375 2.488281 -17.457031 3.53125 -19.40625 C 4.582031 -21.363281 5.941406 -22.785156 7.609375 -23.671875 C 9.273438 -24.566406 11.078125 -25.015625 13.015625 -25.015625 C 15.066406 -25.015625 16.835938 -24.484375 18.328125 -23.421875 C 19.816406 -22.359375 20.953125 -20.84375 21.734375 -18.875 C 22.523438 -16.914062 22.921875 -14.617188 22.921875 -11.984375 C 22.921875 -9.578125 22.421875 -7.414062 21.421875 -5.5 C 20.429688 -3.582031 19.128906 -2.085938 17.515625 -1.015625 C 15.898438 0.0546875 14.191406 0.59375 12.390625 0.59375 Z M 19.515625 -12.203125 C 19.515625 -13.742188 19.257812 -15.109375 18.75 -16.296875 C 18.238281 -17.492188 17.535156 -18.425781 16.640625 -19.09375 C 15.742188 -19.757812 14.742188 -20.09375 13.640625 -20.09375 C 12.273438 -20.09375 10.953125 -19.800781 9.671875 -19.21875 C 8.390625 -18.644531 7.34375 -17.785156 6.53125 -16.640625 C 5.71875 -15.503906 5.3125 -14.128906 5.3125 -12.515625 C 5.3125 -11.171875 5.640625 -9.851562 6.296875 -8.5625 C 6.953125 -7.28125 7.804688 -6.234375 8.859375 -5.421875 C 9.921875 -4.617188 11.007812 -4.21875 12.125 -4.21875 C 13.40625 -4.21875 14.613281 -4.535156 15.75 -5.171875 C 16.882812 -5.816406 17.796875 -6.738281 18.484375 -7.9375 C 19.171875 -9.144531 19.515625 -10.566406 19.515625 -12.203125 Z M 19.515625 -12.203125 "/></g></g></g><g fill="#000000" fill-opacity="1"><g transform="translate(201.493566, 325.191801)"><g><path d="M 15.453125 -38.90625 C 15.972656 -38.90625 16.675781 -38.722656 17.5625 -38.359375 C 18.457031 -38.003906 19.242188 -37.519531 19.921875 -36.90625 C 20.609375 -36.289062 20.953125 -35.613281 20.953125 -34.875 C 20.953125 -34.28125 20.878906 -33.710938 20.734375 -33.171875 C 20.597656 -32.628906 20.332031 -32.359375 19.9375 -32.359375 C 19.59375 -32.359375 19.265625 -32.421875 18.953125 -32.546875 C 18.640625 -32.679688 18.273438 -32.867188 17.859375 -33.109375 C 17.335938 -33.398438 16.910156 -33.613281 16.578125 -33.75 C 16.242188 -33.894531 15.867188 -33.96875 15.453125 -33.96875 C 13.648438 -33.96875 12.347656 -32.9375 11.546875 -30.875 C 10.742188 -28.820312 10.265625 -26.367188 10.109375 -23.515625 L 16.234375 -23.515625 C 16.390625 -23.535156 16.625 -23.566406 16.9375 -23.609375 C 17.257812 -23.648438 17.523438 -23.671875 17.734375 -23.671875 C 18.179688 -23.671875 18.554688 -23.492188 18.859375 -23.140625 C 19.160156 -22.785156 19.3125 -22.160156 19.3125 -21.265625 C 19.3125 -20.117188 19.070312 -19.378906 18.59375 -19.046875 C 18.125 -18.722656 17.5625 -18.5625 16.90625 -18.5625 C 13.863281 -18.738281 11.765625 -18.828125 10.609375 -18.828125 L 10 -18.828125 C 9.988281 -17.816406 9.945312 -16.191406 9.875 -13.953125 C 9.769531 -11.441406 9.710938 -9.425781 9.703125 -7.90625 C 9.703125 -7.71875 9.757812 -7.242188 9.875 -6.484375 C 9.894531 -6.347656 9.96875 -5.804688 10.09375 -4.859375 C 10.226562 -3.921875 10.296875 -2.941406 10.296875 -1.921875 C 10.296875 -0.460938 9.816406 0.265625 8.859375 0.265625 C 8.015625 0.265625 7.390625 0.125 6.984375 -0.15625 C 6.578125 -0.445312 6.300781 -1 6.15625 -1.8125 C 6.007812 -2.625 5.9375 -3.90625 5.9375 -5.65625 C 5.9375 -6.65625 5.953125 -7.796875 5.984375 -9.078125 C 6.023438 -10.367188 6.050781 -11.289062 6.0625 -11.84375 C 6.15625 -13.644531 6.207031 -15.492188 6.21875 -17.390625 C 6.21875 -17.671875 6.238281 -18.101562 6.28125 -18.6875 C 4.894531 -18.601562 3.675781 -18.5625 2.625 -18.5625 C 2.164062 -18.5625 1.769531 -18.828125 1.4375 -19.359375 C 1.101562 -19.898438 0.9375 -20.484375 0.9375 -21.109375 C 0.9375 -21.710938 1.113281 -22.289062 1.46875 -22.84375 C 1.832031 -23.394531 2.234375 -23.671875 2.671875 -23.671875 L 6.40625 -23.515625 L 6.640625 -23.515625 C 7.140625 -27.921875 8.097656 -31.585938 9.515625 -34.515625 C 10.929688 -37.441406 12.910156 -38.90625 15.453125 -38.90625 Z M 15.453125 -38.90625 "/></g></g></g><g fill="#000000" fill-opacity="1"><g transform="translate(221.37913, 325.191801)"><g><path d="M 9.046875 -33.671875 C 9.046875 -31.515625 8.242188 -30.4375 6.640625 -30.4375 C 5.929688 -30.4375 5.269531 -30.644531 4.65625 -31.0625 C 4.039062 -31.476562 3.734375 -32.203125 3.734375 -33.234375 C 3.734375 -33.753906 3.875 -34.28125 4.15625 -34.8125 C 4.445312 -35.351562 4.800781 -35.796875 5.21875 -36.140625 C 5.644531 -36.484375 6.046875 -36.65625 6.421875 -36.65625 C 7.140625 -36.65625 7.753906 -36.429688 8.265625 -35.984375 C 8.785156 -35.535156 9.046875 -34.765625 9.046875 -33.671875 Z M 7.59375 -2.203125 C 7.59375 -1.335938 7.410156 -0.65625 7.046875 -0.15625 C 6.679688 0.34375 6.273438 0.59375 5.828125 0.59375 C 5.191406 0.59375 4.6875 0.390625 4.3125 -0.015625 C 3.945312 -0.421875 3.664062 -1.097656 3.46875 -2.046875 C 3.332031 -2.878906 3.265625 -4.648438 3.265625 -7.359375 C 3.265625 -11.859375 3.441406 -15.929688 3.796875 -19.578125 C 4.148438 -23.234375 4.957031 -25.0625 6.21875 -25.0625 C 6.738281 -25.0625 7.082031 -24.832031 7.25 -24.375 C 7.414062 -23.914062 7.5 -23.257812 7.5 -22.40625 L 7.28125 -18.765625 C 7.195312 -17.535156 7.117188 -16.25 7.046875 -14.90625 C 6.984375 -13.5625 6.953125 -12.359375 6.953125 -11.296875 C 6.953125 -10.179688 7.0625 -8.609375 7.28125 -6.578125 C 7.488281 -4.472656 7.59375 -3.015625 7.59375 -2.203125 Z M 7.59375 -2.203125 "/></g></g></g><g fill="#000000" fill-opacity="1"><g transform="translate(231.723776, 325.191801)"><g><path d="M 11.21875 -5.90625 C 11.6875 -5.90625 12.046875 -5.660156 12.296875 -5.171875 C 12.546875 -4.691406 12.671875 -4.125 12.671875 -3.46875 C 12.671875 -2.800781 12.46875 -2.1875 12.0625 -1.625 C 11.65625 -1.070312 11.160156 -0.640625 10.578125 -0.328125 C 9.992188 -0.0234375 9.46875 0.125 9 0.125 C 7.300781 0.125 6.0625 -0.414062 5.28125 -1.5 C 4.507812 -2.59375 4.128906 -4.191406 4.140625 -6.296875 L 4.484375 -34.734375 C 4.484375 -35.878906 4.640625 -36.800781 4.953125 -37.5 C 5.265625 -38.195312 5.75 -38.546875 6.40625 -38.546875 C 6.832031 -38.546875 7.1875 -38.289062 7.46875 -37.78125 C 7.757812 -37.269531 7.90625 -36.722656 7.90625 -36.140625 L 7.5625 -11.21875 L 7.5625 -10.34375 C 7.5625 -8.71875 7.675781 -7.367188 7.90625 -6.296875 C 8.144531 -5.222656 8.523438 -4.6875 9.046875 -4.6875 C 9.273438 -4.6875 9.460938 -4.738281 9.609375 -4.84375 C 9.765625 -4.945312 9.945312 -5.101562 10.15625 -5.3125 C 10.363281 -5.519531 10.539062 -5.671875 10.6875 -5.765625 C 10.84375 -5.859375 11.019531 -5.90625 11.21875 -5.90625 Z M 11.21875 -5.90625 "/></g></g></g></svg>