<svg xmlns="http://www.w3.org/2000/svg" xmlns:xlink="http://www.w3.org/1999/xlink" width="500" zoomAndPan="magnify" viewBox="0 0 375 374.999991" height="500" preserveAspectRatio="xMidYMid meet" version="1.0"><path fill="#000000" d="M 188.25 0 C 84.449219 0 0 84.449219 0 188.25 C 0 292.050781 84.449219 376.5 188.25 376.5 C 292.050781 376.5 376.5 292.050781 376.5 188.25 C 376.5 84.449219 292.050781 0 188.25 0 Z M 307.359375 299.574219 C 282.804688 257.628906 237.785156 231.347656 188.242188 231.347656 C 138.710938 231.347656 93.699219 257.628906 69.140625 299.578125 C 41.855469 270.402344 25.101562 231.253906 25.101562 188.25 C 25.101562 98.289062 98.289062 25.101562 188.25 25.101562 C 278.210938 25.101562 351.398438 98.289062 351.398438 188.25 C 351.398438 231.253906 334.644531 270.402344 307.359375 299.574219 Z M 307.359375 299.574219 " fill-opacity="1" fill-rule="nonzero"/><path fill="#000000" d="M 188.25 55.648438 C 145.9375 55.648438 111.511719 90.074219 111.511719 132.390625 C 111.511719 174.707031 145.9375 209.132812 188.25 209.132812 C 230.566406 209.132812 264.992188 174.707031 264.992188 132.390625 C 264.992188 90.074219 230.566406 55.648438 188.25 55.648438 Z M 188.25 55.648438 " fill-opacity="1" fill-rule="nonzero"/></svg>